<svg xmlns="http://www.w3.org/2000/svg" xmlns:xlink="http://www.w3.org/1999/xlink" version="1.1" x="0px" y="0px" viewBox="0 0 48 60" enable-background="new 0 0 48 48" xml:space="preserve"><g><path d="M45.8,38.6L33.3,27.3c1.7-2.7,2.6-5.9,2.6-9.2c0-4.7-1.8-9.2-5.2-12.5c-3.3-3.3-7.8-5.2-12.5-5.2C13.4,0.5,9,2.3,5.7,5.7   c-6.9,6.9-6.9,18.1,0,25c3.3,3.3,7.8,5.2,12.5,5.2c3.3,0,6.4-0.9,9.2-2.6l11.3,12.5c0.9,1.1,2.2,1.7,3.7,1.7h0.1   c1.4,0,2.6-0.5,3.6-1.5s1.5-2.3,1.5-3.8C47.5,40.8,46.9,39.5,45.8,38.6z M26,26c-4.3,4.3-11.3,4.3-15.6,0C6,21.7,6,14.7,10.3,10.3   S21.7,6,26,10.3C30.3,14.7,30.3,21.7,26,26z"/></g><text x="0" y="63" fill="#000000" font-size="5px" font-weight="bold" font-family="'Helvetica Neue', Helvetica, Arial-Unicode, Arial, Sans-serif">Created by Creative Stall</text><text x="0" y="68" fill="#000000" font-size="5px" font-weight="bold" font-family="'Helvetica Neue', Helvetica, Arial-Unicode, Arial, Sans-serif">from the Noun Project</text></svg>